<svg xmlns="http://www.w3.org/2000/svg" version="1.1"
    xmlns:xlink="http://www.w3.org/1999/xlink" width="512" height="512" x="0" y="0" viewBox="0 0 200 200" style="enable-background:new 0 0 512 512" xml:space="preserve" class="">
    <g>
        <g data-name="Layer 2">
            <g data-name="Flat Color">
                <g data-name="Bitcoin (BTC)">
                    <circle cx="100" cy="100" r="100" fill="#f79621" opacity="1" data-original="#f79621" class=""></circle>
                    <path fill="#ffffff" d="M137.1 90.81c1.69-10.9-6.54-16.81-17.82-20.81L123 55.42l-9-2.3-3.68 14.33-7.16-1.84 3.68-14.33L98.05 49l-3.76 14.69-18.09-4.64-2.45 9.53 6.47 1.66a4.84 4.84 0 0 1 4.08 5.24l-10.38 40.45a3.25 3.25 0 0 1-1.66 1.92 3.17 3.17 0 0 1-2.52.21l-6.48-1.66-4.4 10.21 17.91 4.59-3.84 15 9 2.32 3.84-15 7.23 1.84L89.19 150l8.9 2.28 3.8-14.8c15.38 3 26.84 2 31.81-11.85a15.77 15.77 0 0 0-6.82-21.21c-.42-.21-.84-.4-1.27-.58a14.26 14.26 0 0 0 11.49-13.03zm-20.7 28.57c-2.85 11.1-21.54 5-27.61 3.39l5.06-19.71c6.07 1.56 25.53 4.71 22.55 16.32zm3-28.81c-2.6 10.12-18.12 4.84-23.21 3.53l4.6-17.91c5.04 1.3 21.3 3.75 18.57 14.38z" opacity="1" data-original="#ffffff"></path>
                </g>
            </g>
        </g>
    </g>
</svg>