<svg width="18" height="18" viewBox="0 0 18 18" fill="none"
    xmlns="http://www.w3.org/2000/svg">
    <g clip-path="url(#clip0_1104_100)">
        <path d="M15.5 1H2.5C2.10218 1 1.72064 1.15804 1.43934 1.43934C1.15804 1.72064 1 2.10218 1 2.5V15.5C1 15.8978 1.15804 16.2794 1.43934 16.5607C1.72064 16.842 2.10218 17 2.5 17H15.5C15.8978 17 16.2794 16.842 16.5607 16.5607C16.842 16.2794 17 15.8978 17 15.5V2.5C17 2.10218 16.842 1.72064 16.5607 1.43934C16.2794 1.15804 15.8978 1 15.5 1Z" fill="#CCD6DD"/>
        <path d="M15.5 0.5H2.5C1.96957 0.5 1.46086 0.710714 1.08579 1.08579C0.710714 1.46086 0.5 1.96957 0.5 2.5V15.5C0.5 16.0304 0.710714 16.5391 1.08579 16.9142C1.46086 17.2893 1.96957 17.5 2.5 17.5H15.5C16.0304 17.5 16.5391 17.2893 16.9142 16.9142C17.2893 16.5391 17.5 16.0304 17.5 15.5V2.5C17.5 1.96957 17.2893 1.46086 16.9142 1.08579C16.5391 0.710714 16.0304 0.5 15.5 0.5ZM15.5 1.5C16.0515 1.5 16.5 1.9485 16.5 2.5V4.5H13.5V1.5H15.5ZM13.5 9.5H16.5V12.5H13.5V9.5ZM13.5 8.5V5.5H16.5V8.5H13.5ZM12.5 1.5V4.5H9.5V1.5H12.5ZM9.5 5.5H12.5V8.5H9.5V5.5ZM9.5 9.5H12.5V12.5H9.5V9.5ZM8.5 1.5V4.5H5.5V1.5H8.5ZM5.5 5.5H8.5V8.5H5.5V5.5ZM5.5 9.5H8.5V12.5H5.5V9.5ZM1.5 2.5C1.5 1.9485 1.9485 1.5 2.5 1.5H4.5V4.5H1.5V2.5ZM1.5 5.5H4.5V8.5H1.5V5.5ZM1.5 9.5H4.5V12.5H1.5V9.5ZM2.5 16.5C1.9485 16.5 1.5 16.0515 1.5 15.5V13.5H4.5V16.5H2.5ZM5.5 16.5V13.5H8.5V16.5H5.5ZM9.5 16.5V13.5H12.5V16.5H9.5ZM15.5 16.5H13.5V13.5H16.5V15.5C16.5 16.0515 16.0515 16.5 15.5 16.5Z" fill="#E1E8ED"/>
        <path d="M6.5 16.5H3.5V8C3.5 7.73478 3.60536 7.48043 3.79289 7.29289C3.98043 7.10536 4.23478 7 4.5 7H5.5C5.76522 7 6.01957 7.10536 6.20711 7.29289C6.39464 7.48043 6.5 7.73478 6.5 8V16.5Z" fill="#5C913B"/>
        <path d="M14.5 16.5H11.5V4.5C11.5 4.23478 11.6054 3.98043 11.7929 3.79289C11.9804 3.60536 12.2348 3.5 12.5 3.5H13.5C13.7652 3.5 14.0196 3.60536 14.2071 3.79289C14.3946 3.98043 14.5 4.23478 14.5 4.5V16.5Z" fill="#3B94D9"/>
        <path d="M10.5 16.5H7.5V11.5C7.5 11.2348 7.60536 10.9804 7.79289 10.7929C7.98043 10.6054 8.23478 10.5 8.5 10.5H9.5C9.76522 10.5 10.0196 10.6054 10.2071 10.7929C10.3946 10.9804 10.5 11.2348 10.5 11.5V16.5Z" fill="#DD2E44"/>
    </g>
    <defs>
        <clipPath id="clip0_1104_100">
            <rect width="18" height="18" fill="white"/>
        </clipPath>
    </defs>
</svg>
