<svg width="18" height="18" viewBox="0 0 18 18" fill="none"
    xmlns="http://www.w3.org/2000/svg">
    <g clip-path="url(#clip0_1104_95)">
        <path d="M13.6939 12.321L12.2799 13.735L9.80493 11.26L11.2189 9.84601L13.6939 12.321Z" fill="#9AAAB4"/>
        <path d="M17.3415 14.555L14.402 11.6155C14.2145 11.428 13.9602 11.3227 13.695 11.3227C13.4299 11.3227 13.1756 11.428 12.988 11.6155L11.574 13.0295C11.3866 13.217 11.2812 13.4713 11.2812 13.7365C11.2812 14.0016 11.3866 14.256 11.574 14.4435L14.5135 17.383C14.698 17.574 14.9187 17.7264 15.1627 17.8312C15.4067 17.936 15.6692 17.9912 15.9347 17.9935C16.2003 17.9958 16.4637 17.9452 16.7094 17.8446C16.9552 17.7441 17.1785 17.5956 17.3663 17.4078C17.5541 17.22 17.7026 16.9967 17.8032 16.7509C17.9037 16.5051 17.9543 16.2417 17.952 15.9762C17.9497 15.7106 17.8946 15.4482 17.7897 15.2042C17.6849 14.9602 17.5326 14.7395 17.3415 14.555Z" fill="#66757F"/>
        <path d="M6.79297 13.5845C10.5209 13.5845 13.543 10.5624 13.543 6.83447C13.543 3.10655 10.5209 0.0844727 6.79297 0.0844727C3.06505 0.0844727 0.0429688 3.10655 0.0429688 6.83447C0.0429688 10.5624 3.06505 13.5845 6.79297 13.5845Z" fill="#8899A6"/>
        <path d="M6.79297 11.5845C9.41632 11.5845 11.543 9.45783 11.543 6.83447C11.543 4.21112 9.41632 2.08447 6.79297 2.08447C4.16962 2.08447 2.04297 4.21112 2.04297 6.83447C2.04297 9.45783 4.16962 11.5845 6.79297 11.5845Z" fill="#BBDDF5"/>
    </g>
    <defs>
        <clipPath id="clip0_1104_95">
            <rect width="18" height="18" fill="white"/>
        </clipPath>
    </defs>
</svg>
