<svg width="22" height="22" viewBox="0 0 22 22" fill="none" xmlns="http://www.w3.org/2000/svg">
<path d="M11 22C11 15.9249 6.07513 11 -2.38419e-07 11" stroke="currentColor" stroke-width="4"/>
<mask id="mask0_49_68" style="mask-type:alpha" maskUnits="userSpaceOnUse" x="0" y="0" width="22" height="22">
<path d="M22 22C20.6667 22 19.3333 22 18 22C17.9999 21.5244 17.9819 21.0564 17.9452 20.5842C17.8162 18.9161 17.4529 17.2656 16.8673 15.7C14.5318 9.27635 8.23958 4.50986 1.41582 4.05476C0.943605 4.01814 0.47559 4.00006 0 4C0 2.66667 0 1.33333 0 0C0.578767 7.24792e-05 1.1493 0.0220795 1.72564 0.0667801C10.0784 0.629333 17.7546 6.44083 20.6142 14.2998C21.3311 16.216 21.7758 18.2383 21.9332 20.2744C21.9779 20.8507 21.9999 21.4212 22 22Z" fill="white"/>
</mask>
<g mask="url(#mask0_49_68)">
<rect width="22" height="14" transform="matrix(1 0 0 -1 0 14)" fill="currentColor"/>
</g>
</svg>
