<svg width="22" height="22" viewBox="0 0 22 22" fill="none"
    xmlns="http://www.w3.org/2000/svg">
    <path d="M11 -2.38419e-07C11 6.07513 15.9249 11 22 11" stroke="currentColor" stroke-width="4"/>
    <mask id="mask0_49_24" style="mask-type:alpha" maskUnits="userSpaceOnUse" x="0" y="0" width="22" height="22">
        <path d="M0 0C1.33333 0 2.66667 0 4 0C4.00006 0.475589 4.01814 0.943602 4.05476 1.41582C4.18381 3.08394 4.54714 4.73441 5.13271 6.29999C7.46825 12.7237 13.7604 17.4901 20.5842 17.9452C21.0564 17.9819 21.5244 17.9999 22 18C22 19.3333 22 20.6667 22 22C21.4212 21.9999 20.8507 21.9779 20.2744 21.9332C11.9216 21.3707 4.24542 15.5592 1.38577 7.70016C0.668922 5.78397 0.224157 3.76169 0.0667801 1.72564C0.0220795 1.1493 7.24792e-05 0.578767 0 0Z" fill="white"/>
    </mask>
    <g mask="url(#mask0_49_24)">
        <rect width="22" height="14" transform="matrix(-1 0 0 1 22 8)" fill="currentColor"/>
    </g>
</svg>
