<svg width="22" height="22" viewBox="0 0 22 22" fill="none"
    xmlns="http://www.w3.org/2000/svg">
    <path d="M11 -2.38419e-07C11 6.07513 6.07513 11 -2.38419e-07 11" stroke="currentColor" stroke-width="4"/>
    <mask id="mask0_48_2" style="mask-type:alpha" maskUnits="userSpaceOnUse" x="0" y="0" width="22" height="22">
        <path d="M22 0C20.6667 0 19.3333 0 18 0C17.9999 0.475589 17.9819 0.943602 17.9452 1.41582C17.8162 3.08394 17.4529 4.73441 16.8673 6.29999C14.5318 12.7237 8.23958 17.4901 1.41582 17.9452C0.943605 17.9819 0.47559 17.9999 0 18C0 19.3333 0 20.6667 0 22C0.578767 21.9999 1.1493 21.9779 1.72564 21.9332C10.0784 21.3707 17.7546 15.5592 20.6142 7.70016C21.3311 5.78397 21.7758 3.76169 21.9332 1.72564C21.9779 1.1493 21.9999 0.578767 22 0Z" fill="white"/>
    </mask>
    <g mask="url(#mask0_48_2)">
        <rect y="8" width="22" height="14" fill="currentColor"/>
    </g>
</svg>
