<svg width="22" height="22" viewBox="0 0 22 22" fill="none" xmlns="http://www.w3.org/2000/svg">
<path d="M11 22C11 15.9249 15.9249 11 22 11" stroke="currentColor" stroke-width="4"/>
<mask id="mask0_49_46" style="mask-type:alpha" maskUnits="userSpaceOnUse" x="0" y="0" width="22" height="22">
<path d="M0 22C1.33333 22 2.66667 22 4 22C4.00006 21.5244 4.01814 21.0564 4.05476 20.5842C4.18381 18.9161 4.54714 17.2656 5.13271 15.7C7.46825 9.27635 13.7604 4.50986 20.5842 4.05476C21.0564 4.01814 21.5244 4.00006 22 4C22 2.66667 22 1.33333 22 0C21.4212 7.24792e-05 20.8507 0.0220795 20.2744 0.0667801C11.9216 0.629333 4.24542 6.44083 1.38577 14.2998C0.668922 16.216 0.224157 18.2383 0.0667801 20.2744C0.0220795 20.8507 7.24792e-05 21.4212 0 22Z" fill="white"/>
</mask>
<g mask="url(#mask0_49_46)">
<rect x="22" y="14" width="22" height="14" transform="rotate(-180 22 14)" fill="currentColor"/>
</g>
</svg>
