<svg width="120" height="120" viewBox="0 0 120 120" fill="none"
    xmlns="http://www.w3.org/2000/svg">
    <path d="M11 26.12L25.532 52.095V67.939L11.017 93.863L11 26.12Z" fill="#5B57A2"/>
    <path d="M66.7971 42.643L80.4141 34.297L108.282 34.271L66.7971 59.685V42.643Z" fill="#D90751"/>
    <path d="M66.72 25.967L66.797 60.357L52.231 51.407V0L66.72 25.967Z" fill="#FAB718"/>
    <path d="M108.282 34.271L80.413 34.297L66.72 25.967L52.231 0L108.282 34.271Z" fill="#ED6F26"/>
    <path d="M66.797 94.007V77.322L52.231 68.542L52.239 120L66.797 94.007Z" fill="#63B22F"/>
    <path d="M80.38 85.737L25.531 52.095L11 26.12L108.223 85.703L80.38 85.737Z" fill="#1487C9"/>
    <path d="M52.24 120L66.796 94.007L80.379 85.737L108.222 85.703L52.24 120Z" fill="#017F36"/>
    <path d="M11.0171 93.863L52.3501 68.543L38.4541 60.017L25.5321 67.939L11.0171 93.863Z" fill="#984995"/>
</svg>
