<svg width="18" height="18" viewBox="0 0 18 18" fill="none"
    xmlns="http://www.w3.org/2000/svg">
    <path d="M1.0651 7.428L1.0631 7.427C1.0631 7.427 0.0375977 13.6355 0.0375977 14.5305C0.0375977 15.4425 0.709098 16.1815 1.5376 16.1815C1.8776 16.1815 2.1876 16.0525 2.4391 15.8425L7.5221 11.3735L1.0651 7.428ZM16.9101 7.428L16.9121 7.427C16.9121 7.427 17.9376 13.6355 17.9376 14.5305C17.9376 15.4425 17.2661 16.1815 16.4376 16.1815C16.0976 16.1815 15.7876 16.0525 15.5361 15.8425L10.4531 11.3735L16.9101 7.428Z" fill="#31373D"/>
    <path d="M12.9875 12.0255C15.3348 12.0255 17.2375 10.1227 17.2375 7.77551C17.2375 5.4283 15.3348 3.52551 12.9875 3.52551C10.6403 3.52551 8.73755 5.4283 8.73755 7.77551C8.73755 10.1227 10.6403 12.0255 12.9875 12.0255Z" fill="#14171A"/>
    <path d="M4.98755 12.0255C7.33476 12.0255 9.23755 10.1227 9.23755 7.77551C9.23755 5.4283 7.33476 3.52551 4.98755 3.52551C2.64034 3.52551 0.737549 5.4283 0.737549 7.77551C0.737549 10.1227 2.64034 12.0255 4.98755 12.0255Z" fill="#14171A"/>
    <path d="M4.98755 3.52551H12.9875V11.9605H4.98755V3.52551Z" fill="#14171A"/>
    <path d="M6.5376 14.1505C7.91831 14.1505 9.0376 13.0312 9.0376 11.6505C9.0376 10.2698 7.91831 9.15051 6.5376 9.15051C5.15689 9.15051 4.0376 10.2698 4.0376 11.6505C4.0376 13.0312 5.15689 14.1505 6.5376 14.1505Z" fill="#14171A"/>
    <path d="M11.4375 14.1505C12.8182 14.1505 13.9375 13.0312 13.9375 11.6505C13.9375 10.2698 12.8182 9.15051 11.4375 9.15051C10.0568 9.15051 8.9375 10.2698 8.9375 11.6505C8.9375 13.0312 10.0568 14.1505 11.4375 14.1505Z" fill="#14171A"/>
    <path d="M11.4375 13.1505C12.2659 13.1505 12.9375 12.4789 12.9375 11.6505C12.9375 10.8221 12.2659 10.1505 11.4375 10.1505C10.6091 10.1505 9.9375 10.8221 9.9375 11.6505C9.9375 12.4789 10.6091 13.1505 11.4375 13.1505Z" fill="#67757F"/>
    <path d="M6.5376 13.1505C7.36602 13.1505 8.0376 12.4789 8.0376 11.6505C8.0376 10.8221 7.36602 10.1505 6.5376 10.1505C5.70917 10.1505 5.0376 10.8221 5.0376 11.6505C5.0376 12.4789 5.70917 13.1505 6.5376 13.1505Z" fill="#67757F"/>
    <path d="M12.8674 6.36801C13.3101 6.36801 13.6689 6.00917 13.6689 5.56651C13.6689 5.12386 13.3101 4.76501 12.8674 4.76501C12.4248 4.76501 12.0659 5.12386 12.0659 5.56651C12.0659 6.00917 12.4248 6.36801 12.8674 6.36801Z" fill="#FFCC4D"/>
    <path d="M12.8674 9.60501C13.3101 9.60501 13.6689 9.24617 13.6689 8.80351C13.6689 8.36086 13.3101 8.00201 12.8674 8.00201C12.4248 8.00201 12.0659 8.36086 12.0659 8.80351C12.0659 9.24617 12.4248 9.60501 12.8674 9.60501Z" fill="#77B255"/>
    <path d="M11.249 7.98648C11.6917 7.98648 12.0505 7.62764 12.0505 7.18498C12.0505 6.74233 11.6917 6.38348 11.249 6.38348C10.8064 6.38348 10.4475 6.74233 10.4475 7.18498C10.4475 7.62764 10.8064 7.98648 11.249 7.98648Z" fill="#50A5E6"/>
    <path d="M14.4861 7.98648C14.9287 7.98648 15.2876 7.62764 15.2876 7.18498C15.2876 6.74233 14.9287 6.38348 14.4861 6.38348C14.0434 6.38348 13.6846 6.74233 13.6846 7.18498C13.6846 7.62764 14.0434 7.98648 14.4861 7.98648Z" fill="#DD2E44"/>
    <path d="M5.574 6.25697V5.17297C5.574 5.106 5.5474 5.04178 5.50004 4.99443C5.45269 4.94707 5.38847 4.92047 5.3215 4.92047H4.5425C4.47553 4.92047 4.41131 4.94707 4.36396 4.99443C4.3166 5.04178 4.29 5.106 4.29 5.17297V6.25697L4.932 6.89947L5.574 6.25697ZM4.2895 8.07197V9.15597C4.2895 9.29547 4.4025 9.40847 4.542 9.40847H5.321C5.38797 9.40847 5.45219 9.38187 5.49954 9.33452C5.5469 9.28716 5.5735 9.22294 5.5735 9.15597V8.07197L4.9315 7.42947L4.2895 8.07197ZM6.924 6.52197H5.84L5.1975 7.16447L5.84 7.80697H6.924C6.99093 7.80684 7.05507 7.78019 7.1024 7.73287C7.14972 7.68555 7.17637 7.6214 7.1765 7.55447V6.77497C7.1765 6.70796 7.14991 6.64368 7.10257 6.59625C7.05524 6.54882 6.99101 6.5221 6.924 6.52197ZM4.0245 6.52197H2.94C2.87307 6.5221 2.80893 6.54875 2.7616 6.59607C2.71428 6.6434 2.68763 6.70754 2.6875 6.77447V7.55347C2.6875 7.69297 2.8005 7.80597 2.94 7.80597H4.024L4.6665 7.16347L4.0245 6.52197Z" fill="#8899A6"/>
</svg>
