<svg viewBox="0 0 46 47" fill="currentColor"
    xmlns="http://www.w3.org/2000/svg">
    <path d="M5.44507 19C6.97217 12.2706 12.2705 6.97327 19 5.44629L23 0L26.999 5.44629C33.7288 6.97302 39.0256 12.2703 40.5527 19L46 23L40.5527 26.999C39.0259 33.7291 33.729 39.0259 26.999 40.5527L23 46.01L19 40.565V40.5527C12.2705 39.0256 6.97412 33.7288 5.44727 26.999L0 23L5.44507 19ZM23 41.51L25.52 37.8C31.7822 36.7391 36.7261 31.7856 37.7871 25.5234L41.5 23L37.7871 20.4756C36.7258 14.2139 31.7854 9.27277 25.5234 8.21191L23 4.5L20.4756 8.21191C14.2141 9.27307 9.27124 14.2085 8.20996 20.47L4.5 23L8.21191 25.5234C9.27271 31.7853 14.2083 36.7387 20.47 37.8L23 41.51Z" />
</svg>
