<svg viewBox="0 0 128 128" fill="currentColor"
    xmlns="http://www.w3.org/2000/svg">
    <path d="M115.478 63.9861H128L112.842 75.1114C108.594 93.8344 93.8546 108.57 75.1277 112.818L64 128V115.481L71.0122 105.16C88.4375 102.208 102.194 88.4276 105.147 71.0063L115.478 63.9861Z" />
    <path d="M105.147 56.9632C102.194 39.543 88.4463 25.7969 71.0217 22.8456L64 12.519V0L75.1277 15.1516C93.8539 19.399 108.593 34.1361 112.842 52.8581L128 63.9861H115.478L105.147 56.9632Z" />
    <path d="M56.9599 105.16L64 115.481V128L52.8696 112.852V112.818C34.144 108.569 19.4063 93.8335 15.1576 75.1114L0 63.9861H12.5217L22.8505 71.0063C25.8023 88.4269 39.536 102.207 56.9599 105.16Z" />
    <path d="M12.5217 63.9861H0L15.1515 52.8581C19.4008 34.1369 34.144 19.3997 52.8696 15.1516L64 0V12.519L56.9755 22.8456C39.5523 25.7977 25.7982 39.5281 22.8451 56.9475L12.5217 63.9861Z" />
    <path d="M63.6001 63.602L73.2001 73.2026L63.6001 90.0037V63.602L63.6001 63.602Z" />
    <path d="M73.2001 73.2026L63.6001 63.602L63.6001 63.602H90.0001L73.2001 73.2026Z" />
    <path d="M63.6 90.0037L54 73.2026L63.6 63.602L63.6 63.602V90.0037Z" />
    <path d="M63.6 63.602L63.6 63.602L54 73.2026L37.2 63.602H63.6Z" />
    <path d="M63.6001 37.2003L73.2001 54.0014L63.6001 63.602L63.6001 63.602V37.2003Z" />
    <path d="M54 54.0013L63.6 63.602L63.5999 63.602H37.2L54 54.0013Z" />
    <path d="M73.1914 54.0054L63.5914 63.6061L63.5915 63.6061H89.9915L73.1914 54.0054Z" />
    <path d="M63.6 63.602L54 54.0014L63.6 37.2003V63.602L63.6 63.602Z" />
</svg>
